<?xml version="1.0" encoding="UTF-8" standalone="no"?><!DOCTYPE svg PUBLIC "-//W3C//DTD SVG 1.1//EN" "http://www.w3.org/Graphics/SVG/1.1/DTD/svg11.dtd"><svg width="100%" height="100%" viewBox="0 0 512 443" version="1.1" xmlns="http://www.w3.org/2000/svg" xmlns:xlink="http://www.w3.org/1999/xlink" xml:space="preserve" xmlns:serif="http://www.serif.com/" style="fill-rule:evenodd;clip-rule:evenodd;stroke-linejoin:round;stroke-miterlimit:2;"><g id="_1" serif:id="1"><path d="M102.4,11.52c0,-6.358 -5.162,-11.52 -11.52,-11.52l-53.76,0c-6.358,0 -11.52,5.162 -11.52,11.52l-0,385.66c-0,6.358 5.162,11.52 11.52,11.52l53.76,0c6.358,0 11.52,-5.162 11.52,-11.52l0,-385.66Z" style="fill:#4782d1;"/><path d="M103.621,371.66c0,-2.252 -1.828,-4.08 -4.08,-4.08l-71.34,-0c-2.252,-0 -4.08,1.828 -4.08,4.08l0,12.24c0,2.252 1.828,4.08 4.08,4.08l71.34,-0c2.252,-0 4.08,-1.828 4.08,-4.08l0,-12.24Z" style="fill:#f8f8f8;"/><path d="M103.621,24.16c0,-2.252 -1.828,-4.08 -4.08,-4.08l-71.34,-0c-2.252,-0 -4.08,1.828 -4.08,4.08l0,12.24c0,2.252 1.828,4.08 4.08,4.08l71.34,-0c2.252,-0 4.08,-1.828 4.08,-4.08l0,-12.24Z" style="fill:#f8f8f8;"/><text x="25.741px" y="251.146px" style="font-family:'ArialMT', 'Arial', sans-serif;font-size:129.894px;fill:#f8f8f8;">?</text></g><g id="_2" serif:id="2"><path d="M193.379,11.52c-0,-6.358 -5.162,-11.52 -11.52,-11.52l-53.76,0c-6.358,0 -11.52,5.162 -11.52,11.52l-0,385.66c-0,6.358 5.162,11.52 11.52,11.52l53.76,0c6.358,0 11.52,-5.162 11.52,-11.52l-0,-385.66Z" style="fill:#4782d1;"/><path d="M194.6,371.66c0,-2.252 -1.828,-4.08 -4.08,-4.08l-71.34,-0c-2.252,-0 -4.08,1.828 -4.08,4.08l0,12.24c0,2.252 1.828,4.08 4.08,4.08l71.34,-0c2.252,-0 4.08,-1.828 4.08,-4.08l0,-12.24Z" style="fill:#f8f8f8;"/><path d="M194.6,24.16c0,-2.252 -1.828,-4.08 -4.08,-4.08l-71.34,-0c-2.252,-0 -4.08,1.828 -4.08,4.08l0,12.24c0,2.252 1.828,4.08 4.08,4.08l71.34,-0c2.252,-0 4.08,-1.828 4.08,-4.08l0,-12.24Z" style="fill:#f8f8f8;"/><text x="116.72px" y="251.146px" style="font-family:'ArialMT', 'Arial', sans-serif;font-size:129.894px;fill:#f8f8f8;">?</text></g><g id="_3" serif:id="3"><path d="M284.879,11.52c-0,-6.358 -5.162,-11.52 -11.52,-11.52l-53.76,0c-6.358,0 -11.52,5.162 -11.52,11.52l-0,385.66c-0,6.358 5.162,11.52 11.52,11.52l53.76,0c6.358,0 11.52,-5.162 11.52,-11.52l-0,-385.66Z" style="fill:#4782d1;"/><path d="M286.1,371.66c0,-2.252 -1.828,-4.08 -4.08,-4.08l-71.34,-0c-2.252,-0 -4.08,1.828 -4.08,4.08l-0,12.24c-0,2.252 1.828,4.08 4.08,4.08l71.34,-0c2.252,-0 4.08,-1.828 4.08,-4.08l0,-12.24Z" style="fill:#fff;"/><path d="M286.1,24.16c0,-2.252 -1.828,-4.08 -4.08,-4.08l-71.34,-0c-2.252,-0 -4.08,1.828 -4.08,4.08l-0,12.24c-0,2.252 1.828,4.08 4.08,4.08l71.34,-0c2.252,-0 4.08,-1.828 4.08,-4.08l0,-12.24Z" style="fill:#fff;"/><text x="208.22px" y="251.146px" style="font-family:'ArialMT', 'Arial', sans-serif;font-size:129.894px;fill:#f8f8f8;">?</text></g><g id="_4" serif:id="4"><path d="M356.744,15.707c-2.381,-5.895 -9.101,-8.747 -14.996,-6.365l-49.846,20.139c-5.895,2.381 -8.747,9.101 -6.365,14.996l144.47,357.578c2.382,5.895 9.102,8.747 14.997,6.366l49.845,-20.139c5.896,-2.382 8.748,-9.102 6.366,-14.997l-144.471,-357.578Z" style="fill:#4782d1;"/><path d="M492.787,349.166c-0.843,-2.088 -3.223,-3.098 -5.311,-2.255l-66.145,26.725c-2.088,0.843 -3.098,3.223 -2.255,5.311l4.585,11.349c0.844,2.088 3.224,3.098 5.312,2.254l66.145,-26.724c2.088,-0.844 3.098,-3.224 2.255,-5.311l-4.586,-11.349Z" style="fill:#f8f8f8;"/><path d="M362.612,26.969c-0.844,-2.087 -3.224,-3.098 -5.312,-2.254l-66.145,26.724c-2.088,0.844 -3.098,3.224 -2.255,5.312l4.586,11.348c0.843,2.088 3.223,3.098 5.311,2.255l66.145,-26.725c2.088,-0.843 3.098,-3.223 2.255,-5.311l-4.585,-11.349Z" style="fill:#f8f8f8;"/><g transform="matrix(0.927184,-0.374607,0.374607,0.927184,-80.3566,130.414)"><text x="371.584px" y="297.013px" style="font-family:'ArialMT', 'Arial', sans-serif;font-size:129.894px;fill:#f8f8f8;">?</text></g></g><rect x="0" y="408" width="512" height="34.575" style="fill-opacity:0.75;"/></svg>