<?xml version="1.0" encoding="UTF-8" standalone="no"?>
<!DOCTYPE svg PUBLIC "-//W3C//DTD SVG 1.1//EN" "http://www.w3.org/Graphics/SVG/1.1/DTD/svg11.dtd">
<svg width="100%" height="100%" viewBox="0 0 1024 885" version="1.1" xmlns="http://www.w3.org/2000/svg" xmlns:xlink="http://www.w3.org/1999/xlink" xml:space="preserve" xmlns:serif="http://www.serif.com/" style="fill-rule:evenodd;clip-rule:evenodd;stroke-linejoin:round;stroke-miterlimit:2;">
    <g id="_1" serif:id="1" transform="matrix(1,0,0,1,44.2422,-103.84)">
        <g transform="matrix(0.748107,0,0,1.27991,-10.5483,-48.8512)">
            <path d="M228.719,137.3C228.719,127.364 214.919,119.298 197.921,119.298L54.198,119.298C37.201,119.298 23.401,127.364 23.401,137.3L23.401,739.935C23.401,749.87 37.201,757.936 54.198,757.936L197.921,757.936C214.919,757.936 228.719,749.87 228.719,739.935L228.719,137.3Z" style="fill:rgb(71,130,209);"/>
        </g>
        <g transform="matrix(1.29931,0,0,0.764084,-53.8674,209.026)">
            <path d="M166.91,835.162C166.91,829.267 164.096,824.482 160.629,824.482L50.817,824.482C47.351,824.482 44.537,829.267 44.537,835.162L44.537,867.2C44.537,873.094 47.351,877.879 50.817,877.879L160.629,877.879C164.096,877.879 166.91,873.094 166.91,867.2L166.91,835.162Z" style="fill:rgb(248,248,248);"/>
        </g>
        <g transform="matrix(1.29931,0,0,0.764084,-53.8674,-485.974)">
            <path d="M166.91,835.162C166.91,829.267 164.096,824.482 160.629,824.482L50.817,824.482C47.351,824.482 44.537,829.267 44.537,835.162L44.537,867.2C44.537,873.094 47.351,877.879 50.817,877.879L160.629,877.879C164.096,877.879 166.91,873.094 166.91,867.2L166.91,835.162Z" style="fill:rgb(248,248,248);"/>
        </g>
        <g transform="matrix(0.902044,0,0,0.902044,-145.361,555.92)">
            <text x="169.173px" y="55.666px" style="font-family:'ArialMT', 'Arial', sans-serif;font-size:288px;fill:rgb(248,248,248);">?</text>
        </g>
    </g>
    <g id="_2" serif:id="2" transform="matrix(1,0,0,1,226.2,-103.84)">
        <g transform="matrix(0.748107,0,0,1.27991,-10.5483,-48.8512)">
            <path d="M228.719,137.3C228.719,127.364 214.919,119.298 197.921,119.298L54.198,119.298C37.201,119.298 23.401,127.364 23.401,137.3L23.401,739.935C23.401,749.87 37.201,757.936 54.198,757.936L197.921,757.936C214.919,757.936 228.719,749.87 228.719,739.935L228.719,137.3Z" style="fill:rgb(71,130,209);"/>
        </g>
        <g transform="matrix(1.29931,0,0,0.764084,-53.8674,209.026)">
            <path d="M166.91,835.162C166.91,829.267 164.096,824.482 160.629,824.482L50.817,824.482C47.351,824.482 44.537,829.267 44.537,835.162L44.537,867.2C44.537,873.094 47.351,877.879 50.817,877.879L160.629,877.879C164.096,877.879 166.91,873.094 166.91,867.2L166.91,835.162Z" style="fill:rgb(248,248,248);"/>
        </g>
        <g transform="matrix(1.29931,0,0,0.764084,-53.8674,-485.974)">
            <path d="M166.91,835.162C166.91,829.267 164.096,824.482 160.629,824.482L50.817,824.482C47.351,824.482 44.537,829.267 44.537,835.162L44.537,867.2C44.537,873.094 47.351,877.879 50.817,877.879L160.629,877.879C164.096,877.879 166.91,873.094 166.91,867.2L166.91,835.162Z" style="fill:rgb(248,248,248);"/>
        </g>
        <g transform="matrix(0.902044,0,0,0.902044,-145.361,555.92)">
            <text x="169.173px" y="55.666px" style="font-family:'ArialMT', 'Arial', sans-serif;font-size:288px;fill:rgb(248,248,248);">?</text>
        </g>
    </g>
    <g id="_3" serif:id="3" transform="matrix(1,0,0,1,409.2,-103.84)">
        <g transform="matrix(0.748107,0,0,1.27991,-10.5483,-48.8512)">
            <path d="M228.719,137.3C228.719,127.364 214.919,119.298 197.921,119.298L54.198,119.298C37.201,119.298 23.401,127.364 23.401,137.3L23.401,739.935C23.401,749.87 37.201,757.936 54.198,757.936L197.921,757.936C214.919,757.936 228.719,749.87 228.719,739.935L228.719,137.3Z" style="fill:rgb(71,130,209);"/>
        </g>
        <g transform="matrix(1.29931,0,0,0.764084,-53.8674,209.026)">
            <path d="M166.91,835.162C166.91,829.267 164.096,824.482 160.629,824.482L50.817,824.482C47.351,824.482 44.537,829.267 44.537,835.162L44.537,867.2C44.537,873.094 47.351,877.879 50.817,877.879L160.629,877.879C164.096,877.879 166.91,873.094 166.91,867.2L166.91,835.162Z" style="fill:white;"/>
        </g>
        <g transform="matrix(1.29931,0,0,0.764084,-53.8674,-485.974)">
            <path d="M166.91,835.162C166.91,829.267 164.096,824.482 160.629,824.482L50.817,824.482C47.351,824.482 44.537,829.267 44.537,835.162L44.537,867.2C44.537,873.094 47.351,877.879 50.817,877.879L160.629,877.879C164.096,877.879 166.91,873.094 166.91,867.2L166.91,835.162Z" style="fill:white;"/>
        </g>
        <g transform="matrix(0.902044,0,0,0.902044,-145.361,555.92)">
            <text x="169.173px" y="55.666px" style="font-family:'ArialMT', 'Arial', sans-serif;font-size:288px;fill:rgb(248,248,248);">?</text>
        </g>
    </g>
    <g id="_4" serif:id="4" transform="matrix(0.927184,-0.374607,0.374607,0.927184,517.092,-26.0806)">
        <g transform="matrix(0.748107,0,0,1.27991,-10.5483,-48.8512)">
            <path d="M228.719,137.3C228.719,127.364 214.919,119.298 197.921,119.298L54.198,119.298C37.201,119.298 23.401,127.364 23.401,137.3L23.401,739.935C23.401,749.87 37.201,757.936 54.198,757.936L197.921,757.936C214.919,757.936 228.719,749.87 228.719,739.935L228.719,137.3Z" style="fill:rgb(71,130,209);"/>
        </g>
        <g transform="matrix(1.29931,0,0,0.764084,-53.8674,209.026)">
            <path d="M166.91,835.162C166.91,829.267 164.096,824.482 160.629,824.482L50.817,824.482C47.351,824.482 44.537,829.267 44.537,835.162L44.537,867.2C44.537,873.094 47.351,877.879 50.817,877.879L160.629,877.879C164.096,877.879 166.91,873.094 166.91,867.2L166.91,835.162Z" style="fill:rgb(248,248,248);"/>
        </g>
        <g transform="matrix(1.29931,0,0,0.764084,-53.8674,-485.974)">
            <path d="M166.91,835.162C166.91,829.267 164.096,824.482 160.629,824.482L50.817,824.482C47.351,824.482 44.537,829.267 44.537,835.162L44.537,867.2C44.537,873.094 47.351,877.879 50.817,877.879L160.629,877.879C164.096,877.879 166.91,873.094 166.91,867.2L166.91,835.162Z" style="fill:rgb(248,248,248);"/>
        </g>
        <g transform="matrix(0.902044,0,0,0.902044,-145.361,555.92)">
            <text x="169.173px" y="55.666px" style="font-family:'ArialMT', 'Arial', sans-serif;font-size:288px;fill:rgb(248,248,248);">?</text>
        </g>
    </g>
    <g transform="matrix(1.03111,0,0,1.03111,3.18184,-92.2173)">
        <rect x="-3.086" y="880.813" width="993.102" height="67.063" style="fill-opacity:0.75;"/>
    </g>
</svg>
